<?xml version="1.0" standalone="no"?><!DOCTYPE svg PUBLIC "-//W3C//DTD SVG 1.1//EN" "http://www.w3.org/Graphics/SVG/1.1/DTD/svg11.dtd"><svg t="1565925829660" class="icon" viewBox="0 0 1024 1024" version="1.1" xmlns="http://www.w3.org/2000/svg" p-id="1468" xmlns:xlink="http://www.w3.org/1999/xlink" width="128" height="128"><defs><style type="text/css"></style></defs><path d="M471.060834 375.015259m-215.008749 0a215.008749 215.008749 0 1 0 430.017498 0 215.008749 215.008749 0 1 0-430.017498 0Z" fill="#E1F5FE" p-id="1469"></path><path d="M591.899084 540.021974l55.418922 96.878942-37.918209 21.87589-55.627264-96.878942z" fill="#757575" p-id="1470"></path><path d="M597.10763 665.860427l62.710885-36.043133c7.916989-4.58352 23.542625 7.916989 34.793082 27.501119l90.003662 156.881384c11.250458 19.792472 14.167243 39.376602 6.250255 43.960122l-62.710885 36.043133c-7.916989 4.58352-23.542625-7.916989-34.793083-27.501119l-90.003662-156.881384c-11.4588-19.792472-14.167243-39.376602-6.250254-43.960122z" fill="#424242" p-id="1471"></path><path d="M702.111902 670.443947l10.000407 17.29237-91.253713 52.710479-10.000407-17.292371 91.253713-52.710478z m17.500712 30.626246l10.000407 17.292371-91.253713 52.710478-10.000407-17.292371 91.253713-52.710478z" fill="#757575" p-id="1472"></path><path d="M348.972533 160.631536c117.713123-67.502747 267.927569-26.876094 335.430315 90.83703 67.502747 117.713123 26.876094 267.927569-90.837029 335.430315-117.713123 67.502747-267.927569 26.876094-335.430315-90.83703-67.502747-117.713123-26.876094-267.927569 90.837029-335.430315z m20.625839 35.834792c97.920651-56.043947 222.717396-22.292574 278.761343 75.628077 56.043947 97.920651 22.292574 222.717396-75.628077 278.761343-97.920651 56.043947-222.717396 22.292574-278.761343-75.628078-56.043947-97.712309-22.292574-222.509054 75.628077-278.761342z" fill="#616161" p-id="1473"></path></svg>